<mxfile host="app.diagrams.net" modified="2021-02-25T11:17:44.764Z" agent="5.0 (X11; Linux x86_64) AppleWebKit/537.36 (KHTML, like Gecko) Chrome/88.0.4324.182 Safari/537.36" etag="hEUvY0WkyUABX0jqpw-6" version="14.4.3" type="github">
  <diagram id="1VW9bMS83K3iSXpgOvQ6" name="Page-1">
    <mxGraphModel dx="2223" dy="1865" grid="1" gridSize="10" guides="1" tooltips="1" connect="1" arrows="1" fold="1" page="1" pageScale="1" pageWidth="850" pageHeight="1100" math="0" shadow="0">
      <root>
        <mxCell id="0" />
        <mxCell id="1" parent="0" />
        <mxCell id="0KLacEAstskpiZ37RAf_-12" style="edgeStyle=orthogonalEdgeStyle;rounded=0;orthogonalLoop=1;jettySize=auto;html=1;exitX=1;exitY=0.5;exitDx=0;exitDy=0;entryX=0;entryY=0;entryDx=0;entryDy=0;curved=1;" edge="1" parent="1" source="0KLacEAstskpiZ37RAf_-1" target="0KLacEAstskpiZ37RAf_-9">
          <mxGeometry relative="1" as="geometry" />
        </mxCell>
        <mxCell id="0KLacEAstskpiZ37RAf_-32" value="&lt;font style=&quot;font-size: 14px&quot;&gt;array of&amp;nbsp;&lt;br&gt;class,&lt;br&gt;bounding box&lt;br&gt;confidence&lt;/font&gt;" style="edgeLabel;html=1;align=center;verticalAlign=middle;resizable=0;points=[];" vertex="1" connectable="0" parent="0KLacEAstskpiZ37RAf_-12">
          <mxGeometry x="-0.2238" y="-10" relative="1" as="geometry">
            <mxPoint as="offset" />
          </mxGeometry>
        </mxCell>
        <mxCell id="0KLacEAstskpiZ37RAf_-13" style="edgeStyle=orthogonalEdgeStyle;rounded=0;orthogonalLoop=1;jettySize=auto;html=1;entryX=0.006;entryY=0.421;entryDx=0;entryDy=0;exitX=0;exitY=0.5;exitDx=0;exitDy=0;entryPerimeter=0;curved=1;" edge="1" parent="1" source="0KLacEAstskpiZ37RAf_-1" target="0KLacEAstskpiZ37RAf_-10">
          <mxGeometry relative="1" as="geometry" />
        </mxCell>
        <mxCell id="0KLacEAstskpiZ37RAf_-34" value="&lt;span style=&quot;font-size: 14px&quot;&gt;hue&lt;/span&gt;" style="edgeLabel;html=1;align=center;verticalAlign=middle;resizable=0;points=[];" vertex="1" connectable="0" parent="0KLacEAstskpiZ37RAf_-13">
          <mxGeometry x="0.1392" y="2" relative="1" as="geometry">
            <mxPoint as="offset" />
          </mxGeometry>
        </mxCell>
        <mxCell id="0KLacEAstskpiZ37RAf_-22" style="edgeStyle=orthogonalEdgeStyle;curved=1;rounded=0;orthogonalLoop=1;jettySize=auto;html=1;exitX=0.5;exitY=1;exitDx=0;exitDy=0;entryX=0;entryY=0;entryDx=0;entryDy=0;" edge="1" parent="1" source="0KLacEAstskpiZ37RAf_-1" target="0KLacEAstskpiZ37RAf_-6">
          <mxGeometry relative="1" as="geometry" />
        </mxCell>
        <mxCell id="0KLacEAstskpiZ37RAf_-33" value="&lt;span style=&quot;font-size: 14px&quot;&gt;bounding box&lt;br&gt;&lt;/span&gt;" style="edgeLabel;html=1;align=center;verticalAlign=middle;resizable=0;points=[];" vertex="1" connectable="0" parent="0KLacEAstskpiZ37RAf_-22">
          <mxGeometry x="-0.4754" y="10" relative="1" as="geometry">
            <mxPoint as="offset" />
          </mxGeometry>
        </mxCell>
        <mxCell id="0KLacEAstskpiZ37RAf_-1" value="&lt;font style=&quot;font-size: 18px&quot;&gt;yolo&lt;/font&gt;" style="ellipse;whiteSpace=wrap;html=1;aspect=fixed;" vertex="1" parent="1">
          <mxGeometry x="10" width="120" height="120" as="geometry" />
        </mxCell>
        <mxCell id="0KLacEAstskpiZ37RAf_-17" style="edgeStyle=orthogonalEdgeStyle;rounded=0;orthogonalLoop=1;jettySize=auto;html=1;exitX=1;exitY=0;exitDx=0;exitDy=0;entryX=0.749;entryY=0.92;entryDx=0;entryDy=0;entryPerimeter=0;curved=1;startArrow=classic;startFill=1;" edge="1" parent="1" source="0KLacEAstskpiZ37RAf_-3" target="0KLacEAstskpiZ37RAf_-9">
          <mxGeometry relative="1" as="geometry" />
        </mxCell>
        <mxCell id="0KLacEAstskpiZ37RAf_-37" value="&lt;span style=&quot;font-size: 14px&quot;&gt;similarity&lt;/span&gt;&lt;br style=&quot;font-size: 14px&quot;&gt;&lt;span style=&quot;font-size: 14px&quot;&gt;smallest&lt;/span&gt;" style="edgeLabel;html=1;align=center;verticalAlign=middle;resizable=0;points=[];" vertex="1" connectable="0" parent="0KLacEAstskpiZ37RAf_-17">
          <mxGeometry x="-0.159" y="3" relative="1" as="geometry">
            <mxPoint as="offset" />
          </mxGeometry>
        </mxCell>
        <mxCell id="0KLacEAstskpiZ37RAf_-3" value="&lt;font style=&quot;font-size: 18px&quot;&gt;linear assignment&lt;br&gt;problem&lt;br&gt;&lt;/font&gt;" style="ellipse;whiteSpace=wrap;html=1;aspect=fixed;" vertex="1" parent="1">
          <mxGeometry x="311.25" y="410" width="127.5" height="127.5" as="geometry" />
        </mxCell>
        <mxCell id="0KLacEAstskpiZ37RAf_-11" style="edgeStyle=orthogonalEdgeStyle;rounded=0;orthogonalLoop=1;jettySize=auto;html=1;exitX=0;exitY=0;exitDx=0;exitDy=0;entryX=1;entryY=0;entryDx=0;entryDy=0;curved=1;" edge="1" parent="1" source="0KLacEAstskpiZ37RAf_-4" target="0KLacEAstskpiZ37RAf_-1">
          <mxGeometry relative="1" as="geometry" />
        </mxCell>
        <mxCell id="0KLacEAstskpiZ37RAf_-23" value="&lt;font style=&quot;font-size: 14px&quot;&gt;image&lt;/font&gt;" style="edgeLabel;html=1;align=center;verticalAlign=middle;resizable=0;points=[];" vertex="1" connectable="0" parent="0KLacEAstskpiZ37RAf_-11">
          <mxGeometry x="-0.1228" y="9" relative="1" as="geometry">
            <mxPoint as="offset" />
          </mxGeometry>
        </mxCell>
        <mxCell id="0KLacEAstskpiZ37RAf_-25" value="&lt;font style=&quot;font-size: 18px&quot;&gt;&lt;br&gt;&lt;/font&gt;" style="edgeLabel;html=1;align=center;verticalAlign=middle;resizable=0;points=[];" vertex="1" connectable="0" parent="0KLacEAstskpiZ37RAf_-11">
          <mxGeometry x="-0.1228" y="9" relative="1" as="geometry">
            <mxPoint x="443.28" y="-20.710000000000008" as="offset" />
          </mxGeometry>
        </mxCell>
        <mxCell id="0KLacEAstskpiZ37RAf_-4" value="&lt;font style=&quot;font-size: 18px&quot;&gt;video file&lt;/font&gt;" style="ellipse;whiteSpace=wrap;html=1;aspect=fixed;" vertex="1" parent="1">
          <mxGeometry x="370" y="-50" width="80" height="80" as="geometry" />
        </mxCell>
        <mxCell id="0KLacEAstskpiZ37RAf_-5" value="&lt;font style=&quot;font-size: 18px&quot;&gt;user&lt;/font&gt;" style="ellipse;whiteSpace=wrap;html=1;aspect=fixed;" vertex="1" parent="1">
          <mxGeometry x="710" y="370" width="50" height="50" as="geometry" />
        </mxCell>
        <mxCell id="0KLacEAstskpiZ37RAf_-16" style="edgeStyle=orthogonalEdgeStyle;rounded=0;orthogonalLoop=1;jettySize=auto;html=1;exitX=1;exitY=0.5;exitDx=0;exitDy=0;entryX=0;entryY=0.5;entryDx=0;entryDy=0;curved=1;startArrow=classic;startFill=1;" edge="1" parent="1" source="0KLacEAstskpiZ37RAf_-6" target="0KLacEAstskpiZ37RAf_-9">
          <mxGeometry relative="1" as="geometry" />
        </mxCell>
        <mxCell id="0KLacEAstskpiZ37RAf_-35" value="&lt;span style=&quot;font-size: 14px&quot;&gt;similarity&lt;/span&gt;&lt;br style=&quot;font-size: 14px&quot;&gt;&lt;span style=&quot;font-size: 14px&quot;&gt;(float)&lt;/span&gt;" style="edgeLabel;html=1;align=center;verticalAlign=middle;resizable=0;points=[];" vertex="1" connectable="0" parent="0KLacEAstskpiZ37RAf_-16">
          <mxGeometry x="0.0901" y="1" relative="1" as="geometry">
            <mxPoint as="offset" />
          </mxGeometry>
        </mxCell>
        <mxCell id="0KLacEAstskpiZ37RAf_-6" value="&lt;font style=&quot;font-size: 18px&quot;&gt;kalman filter&lt;/font&gt;" style="ellipse;whiteSpace=wrap;html=1;aspect=fixed;" vertex="1" parent="1">
          <mxGeometry x="100" y="240" width="80" height="80" as="geometry" />
        </mxCell>
        <mxCell id="0KLacEAstskpiZ37RAf_-40" style="edgeStyle=orthogonalEdgeStyle;curved=1;rounded=0;orthogonalLoop=1;jettySize=auto;html=1;exitX=0.5;exitY=1;exitDx=0;exitDy=0;startArrow=none;startFill=0;" edge="1" parent="1" source="0KLacEAstskpiZ37RAf_-7" target="0KLacEAstskpiZ37RAf_-5">
          <mxGeometry relative="1" as="geometry" />
        </mxCell>
        <mxCell id="0KLacEAstskpiZ37RAf_-41" value="&lt;span style=&quot;font-size: 14px&quot;&gt;request/response&lt;/span&gt;" style="edgeLabel;html=1;align=center;verticalAlign=middle;resizable=0;points=[];" vertex="1" connectable="0" parent="0KLacEAstskpiZ37RAf_-40">
          <mxGeometry x="-0.1838" y="-4" relative="1" as="geometry">
            <mxPoint as="offset" />
          </mxGeometry>
        </mxCell>
        <mxCell id="0KLacEAstskpiZ37RAf_-7" value="&lt;font style=&quot;font-size: 18px&quot;&gt;server&lt;/font&gt;" style="ellipse;whiteSpace=wrap;html=1;aspect=fixed;" vertex="1" parent="1">
          <mxGeometry x="620" y="140" width="90" height="90" as="geometry" />
        </mxCell>
        <mxCell id="0KLacEAstskpiZ37RAf_-19" style="edgeStyle=orthogonalEdgeStyle;rounded=0;orthogonalLoop=1;jettySize=auto;html=1;exitX=0;exitY=0.5;exitDx=0;exitDy=0;entryX=0.5;entryY=0;entryDx=0;entryDy=0;curved=1;" edge="1" parent="1" source="0KLacEAstskpiZ37RAf_-8" target="0KLacEAstskpiZ37RAf_-9">
          <mxGeometry relative="1" as="geometry">
            <mxPoint x="510" y="240" as="targetPoint" />
          </mxGeometry>
        </mxCell>
        <mxCell id="0KLacEAstskpiZ37RAf_-30" value="&lt;font style=&quot;font-size: 14px&quot;&gt;similarity&lt;br&gt;(float)&lt;/font&gt;" style="edgeLabel;html=1;align=center;verticalAlign=middle;resizable=0;points=[];" vertex="1" connectable="0" parent="0KLacEAstskpiZ37RAf_-19">
          <mxGeometry x="-0.2251" y="5" relative="1" as="geometry">
            <mxPoint as="offset" />
          </mxGeometry>
        </mxCell>
        <mxCell id="0KLacEAstskpiZ37RAf_-8" value="&lt;font style=&quot;font-size: 18px&quot;&gt;triplet&lt;/font&gt;" style="ellipse;whiteSpace=wrap;html=1;aspect=fixed;" vertex="1" parent="1">
          <mxGeometry x="520" y="30" width="80" height="80" as="geometry" />
        </mxCell>
        <mxCell id="0KLacEAstskpiZ37RAf_-18" style="edgeStyle=orthogonalEdgeStyle;rounded=0;orthogonalLoop=1;jettySize=auto;html=1;exitX=1;exitY=0;exitDx=0;exitDy=0;entryX=0.5;entryY=1;entryDx=0;entryDy=0;curved=1;" edge="1" parent="1" source="0KLacEAstskpiZ37RAf_-9" target="0KLacEAstskpiZ37RAf_-8">
          <mxGeometry relative="1" as="geometry" />
        </mxCell>
        <mxCell id="0KLacEAstskpiZ37RAf_-31" value="&lt;font style=&quot;font-size: 14px&quot;&gt;image&lt;/font&gt;" style="edgeLabel;html=1;align=center;verticalAlign=middle;resizable=0;points=[];" vertex="1" connectable="0" parent="0KLacEAstskpiZ37RAf_-18">
          <mxGeometry x="-0.2147" y="7" relative="1" as="geometry">
            <mxPoint as="offset" />
          </mxGeometry>
        </mxCell>
        <mxCell id="0KLacEAstskpiZ37RAf_-20" style="edgeStyle=orthogonalEdgeStyle;rounded=0;orthogonalLoop=1;jettySize=auto;html=1;exitX=1;exitY=1;exitDx=0;exitDy=0;entryX=0;entryY=0.5;entryDx=0;entryDy=0;curved=1;" edge="1" parent="1" source="0KLacEAstskpiZ37RAf_-9" target="0KLacEAstskpiZ37RAf_-7">
          <mxGeometry relative="1" as="geometry" />
        </mxCell>
        <mxCell id="0KLacEAstskpiZ37RAf_-38" value="&lt;span style=&quot;font-size: 14px&quot;&gt;relay &lt;br&gt;request/response&lt;/span&gt;" style="edgeLabel;html=1;align=center;verticalAlign=middle;resizable=0;points=[];" vertex="1" connectable="0" parent="0KLacEAstskpiZ37RAf_-20">
          <mxGeometry x="-0.1918" y="-5" relative="1" as="geometry">
            <mxPoint as="offset" />
          </mxGeometry>
        </mxCell>
        <mxCell id="0KLacEAstskpiZ37RAf_-9" value="&lt;font style=&quot;font-size: 18px&quot;&gt;main()&lt;/font&gt;" style="ellipse;whiteSpace=wrap;html=1;aspect=fixed;" vertex="1" parent="1">
          <mxGeometry x="290" y="140" width="170" height="170" as="geometry" />
        </mxCell>
        <mxCell id="0KLacEAstskpiZ37RAf_-15" style="edgeStyle=orthogonalEdgeStyle;rounded=0;orthogonalLoop=1;jettySize=auto;html=1;exitX=1;exitY=1;exitDx=0;exitDy=0;entryX=0.367;entryY=0.996;entryDx=0;entryDy=0;curved=1;entryPerimeter=0;" edge="1" parent="1" source="0KLacEAstskpiZ37RAf_-10" target="0KLacEAstskpiZ37RAf_-9">
          <mxGeometry relative="1" as="geometry" />
        </mxCell>
        <mxCell id="0KLacEAstskpiZ37RAf_-36" value="&lt;span style=&quot;font-size: 14px&quot;&gt;similarity&lt;/span&gt;&lt;br style=&quot;font-size: 14px&quot;&gt;&lt;span style=&quot;font-size: 14px&quot;&gt;(float)&lt;/span&gt;" style="edgeLabel;html=1;align=center;verticalAlign=middle;resizable=0;points=[];" vertex="1" connectable="0" parent="0KLacEAstskpiZ37RAf_-15">
          <mxGeometry x="-0.4361" y="3" relative="1" as="geometry">
            <mxPoint as="offset" />
          </mxGeometry>
        </mxCell>
        <mxCell id="0KLacEAstskpiZ37RAf_-10" value="&lt;span style=&quot;font-size: 18px&quot;&gt;Bhattacharya&lt;br&gt;Distance&lt;br&gt;&lt;/span&gt;" style="ellipse;whiteSpace=wrap;html=1;aspect=fixed;" vertex="1" parent="1">
          <mxGeometry x="-70" y="310" width="120" height="120" as="geometry" />
        </mxCell>
      </root>
    </mxGraphModel>
  </diagram>
</mxfile>
